<svg xmlns="http://www.w3.org/2000/svg" viewBox="0 0 373.4 383.34">
  <title>logo_small</title>
  <g style="opacity: 0.86">
    <polygon points="27.71 285.94 94.07 28.52 345.61 96.63 279.26 354.05 27.71 285.94" style="fill: none;stroke: #09c;stroke-width: 2px"/>
    <polygon points="95.98 354.99 26.52 98.43 277.34 27.58 346.81 284.14 95.98 354.99" style="fill: none;stroke: #9c0;stroke-width: 2px"/>
    <polygon points="186.39 379.45 2.59 191 186.94 3.12 370.74 191.57 186.39 379.45" style="fill: none;stroke: #f44;stroke-width: 2px"/>
    <polygon points="25.57 94.36 76.21 80.66 89.95 28.04 25.57 94.36" style="fill: #f44;fill-rule: evenodd"/>
    <polygon points="189.38 0 226.28 38.01 277.69 23.86 189.38 0" style="fill: #09c;fill-rule: evenodd"/>
    <polygon points="349.17 97.71 335.44 149.41 373.4 188.76 349.17 97.71" style="fill: #9c0;fill-rule: evenodd"/>
    <polygon points="296.81 302.12 347.44 288.43 283.06 354.75 296.81 302.12" style="fill: #f44;fill-rule: evenodd"/>
    <polygon points="0 194.1 37.67 232.58 23.94 284.28 0 194.1" style="fill: #9c0"/>
    <polygon points="95.73 359.48 184.05 383.34 147.15 345.33 95.73 359.48" style="fill: #09c"/>
  </g>
</svg>
